<svg width="195" height="99" xmlns="http://www.w3.org/2000/svg"><defs><linearGradient x1="12.938%" y1="44.251%" x2="77.211%" y2="54.802%" id="a"><stop stop-color="#BBD40C" offset="0%"/><stop stop-color="#EBF658" offset="100%"/></linearGradient><linearGradient x1="7.474%" y1="59.932%" x2="99.795%" y2="43.997%" id="b"><stop stop-color="#FFF700" offset="0%"/><stop stop-color="#FFAB71" offset="100%"/></linearGradient></defs><g fill="none" fill-rule="evenodd"><path d="M40.088 35.38h59.148a3 3 0 012.61 4.48L95.33 51.358a31.51 31.51 0 01-27.417 15.978H7.71A3 3 0 015.132 62.8l6.823-11.441A32.755 32.755 0 0140.088 35.38z" fill="url(#a)" transform="matrix(0 -1 -1 0 104.764 102.764)"/><path d="M20.109 15.978h22.924a3 3 0 012.672 4.365l-5.933 11.614a29.314 29.314 0 01-26.105 15.978h-23.865a3 3 0 01-2.642-4.421l6.215-11.557a30.354 30.354 0 0126.734-15.979z" fill="url(#b)" transform="rotate(-90 15.359 30.957)"/><path d="M109.09 45l-9.54 17.67c-.68 1.26-1.475 2.195-2.385 2.805-.91.61-1.905.915-2.985.915-.8 0-1.66-.19-2.58-.57l.63-1.8c.72.28 1.38.42 1.98.42 1.38 0 2.51-.75 3.39-2.25l.6-1.02L89.68 45h2.37l7.32 14.22 7.5-14.22h2.22zm13.08 21.18c-2.08 0-3.955-.46-5.625-1.38a10.106 10.106 0 01-3.93-3.825c-.95-1.63-1.425-3.455-1.425-5.475 0-2.02.475-3.845 1.425-5.475.95-1.63 2.265-2.905 3.945-3.825 1.68-.92 3.56-1.38 5.64-1.38 1.56 0 3 .26 4.32.78 1.32.52 2.44 1.28 3.36 2.28l-1.41 1.41c-1.64-1.66-3.71-2.49-6.21-2.49-1.66 0-3.17.38-4.53 1.14a8.33 8.33 0 00-3.195 3.12c-.77 1.32-1.155 2.8-1.155 4.44 0 1.64.385 3.12 1.155 4.44a8.33 8.33 0 003.195 3.12c1.36.76 2.87 1.14 4.53 1.14 2.52 0 4.59-.84 6.21-2.52l1.41 1.41c-.92 1-2.045 1.765-3.375 2.295s-2.775.795-4.335.795zM152.14 45v21h-2.19V46.92h-13.29V66h-2.19V45h17.67zm21.93 19.08V66h-14.85V45h14.4v1.92h-12.18v7.47h10.86v1.89h-10.86v7.8h12.63zM179.2 45l5.97 8.31 5.94-8.31h2.61l-7.17 10.08L194.29 66h-2.61l-6.51-9.03-6.51 9.03h-2.55l7.71-10.83L176.65 45h2.55zM101.147 36.04v3.42h-1.035V37h-9.164V26.5h1.095v9.54h6.344V26.5h1.096v9.54h1.664zm4.92-9.63c.98 0 1.868.23 2.663.69a4.959 4.959 0 011.875 1.912c.455.816.682 1.728.682 2.738s-.227 1.922-.682 2.737a4.959 4.959 0 01-1.875 1.913c-.795.46-1.682.69-2.663.69-.82 0-1.57-.13-2.25-.39a4.358 4.358 0 01-1.71-1.155l.69-.705c.83.84 1.905 1.26 3.225 1.26a4.042 4.042 0 003.503-1.943 4.367 4.367 0 00.637-2.047h-5.415v-.915h5.4a4.407 4.407 0 00-.682-1.957 3.99 3.99 0 00-1.463-1.35 4.09 4.09 0 00-1.98-.488c-1.32 0-2.394.42-3.225 1.26l-.69-.705c.46-.51 1.03-.895 1.71-1.155.68-.26 1.43-.39 2.25-.39zm11.806.09c1.34 0 2.39.32 3.15.96.76.64 1.14 1.52 1.14 2.64s-.38 1.997-1.14 2.633c-.76.635-1.81.952-3.15.952h-2.82V37h-1.11V26.5h3.93zm-.03 6.21c1.04 0 1.834-.227 2.385-.682.55-.456.825-1.098.825-1.928 0-.85-.275-1.502-.825-1.958-.55-.455-1.345-.682-2.385-.682h-2.79v5.25h2.79z" fill="#000" fill-rule="nonzero"/></g></svg>