<svg xmlns="http://www.w3.org/2000/svg" width="195" height="99"><defs><clipPath id="a"><path fill="#fff" d="M90.7 42.16a18 18 0 00-15.46-8.78H7.712a3 3 0 00-2.61 4.479l10.396 18.35a18 18 0 0015.661 9.128h68.08a3 3 0 002.577-4.537z"/></clipPath><clipPath id="b"><path fill="#fff" d="M-3.13 23.455a18 18 0 0115.852-9.475h30.309a3 3 0 012.671 4.365L36.341 36.67a17 17 0 01-15.14 9.267H-10.2a3 3 0 01-2.642-4.421z"/></clipPath></defs><path fill="none" stroke="#fff" stroke-miterlimit="50" stroke-width="4" d="M90.7 42.16a18 18 0 00-15.46-8.78H7.712a3 3 0 00-2.61 4.479l10.396 18.35a18 18 0 0015.661 9.128h68.08a3 3 0 002.577-4.537z" clip-path="url(&quot;#a&quot;)" transform="rotate(90 53.5 49.5)"/><path fill="none" stroke="#fff" stroke-miterlimit="50" stroke-width="4" d="M-3.13 23.455a18 18 0 0115.852-9.475h30.309a3 3 0 012.671 4.365L36.341 36.67a17 17 0 01-15.14 9.267H-10.2a3 3 0 01-2.642-4.421z" clip-path="url(&quot;#b&quot;)" transform="rotate(-90 16 30)"/><text dominant-baseline="text-before-edge" style="text-transform:uppercase" fill="#fff" font-family="'Montserrat','Montserrat-Regular'" font-size="30" transform="translate(89 37)"><tspan style="text-transform:uppercase">Успех</tspan></text><g><text fill="#fff" dominant-baseline="text-before-edge" font-family="'Montserrat','Montserrat-Regular'" font-size="15" transform="translate(89 22)"><tspan>ЦЭР</tspan></text></g></svg>