<svg xmlns="http://www.w3.org/2000/svg" width="55" height="53" viewBox="0 0 55 53"><g><g><g><path d="M51.688 22.01H40.789a1 1 0 1 0 0 2h9.102l2.899 27H2.268l3.403-27h9.118a1 1 0 1 0 0-2H3.907L0 53.01h55.017z"/></g><g><path d="M17.925 10.312c.733-5.592 3.949-8.311 9.83-8.311 5.884 0 9.099 2.719 9.83 8.311.256 1.94.149 4.043-.315 6.247-2.27 10.753-7.68 17.576-9.514 19.646-1.837-2.072-7.246-8.898-9.514-19.646-.465-2.204-.571-4.306-.317-6.247zm8.73 27.654c-.147.087-.304.164-.445.255-.22.142-.435.291-.646.445a1.001 1.001 0 0 0 1.184 1.613 10.836 10.836 0 0 1 1.562-.96.993.993 0 0 0 .462-1.269c.008-.008.018-.014.025-.022 1.809-1.916 7.905-9.096 10.429-21.058.512-2.426.627-4.754.342-6.919C38.708 3.476 34.623 0 27.755 0c-6.866 0-10.951 3.476-11.813 10.051-.284 2.166-.17 4.494.343 6.919 2.499 11.846 8.499 18.998 10.37 20.996z"/></g><g><path d="M27.756 6.232a5.352 5.352 0 0 1 5.346 5.345 5.351 5.351 0 0 1-5.346 5.345 5.351 5.351 0 0 1-5.346-5.345 5.352 5.352 0 0 1 5.346-5.345zm0 12.69c4.051 0 7.346-3.295 7.346-7.346S31.807 4.23 27.756 4.23s-7.346 3.295-7.346 7.346 3.295 7.346 7.346 7.346z"/></g><g><path d="M31.431 36.17a1 1 0 1 0 .418 1.956 23.245 23.245 0 0 1 1.886-.313.998.998 0 0 0 .87-1.115.99.99 0 0 0-1.116-.869c-.723.09-1.416.204-2.058.341z"/></g><g><path d="M36.601 36.576a1 1 0 0 0 .998.957h.044l2.001-.084a1 1 0 0 0 .953-1.044c-.025-.553-.539-.984-1.044-.954l-1.996.083a.998.998 0 0 0-.956 1.042z"/></g><g><path d="M22.436 41.18c-.514.389-1.045.762-1.58 1.108a1 1 0 0 0 1.09 1.678 29.359 29.359 0 0 0 1.694-1.188c.44-.333.528-.96.196-1.401a1.003 1.003 0 0 0-1.4-.196z"/></g><g><path d="M44.724 34.583c-.338.237-.777.409-1.346.526a1 1 0 1 0 .405 1.959c.842-.174 1.526-.452 2.096-.853l.134-.098a1 1 0 0 0-1.207-1.595z"/></g><g><path d="M8.863 42.403a.999.999 0 0 0-.704-1.226.996.996 0 0 0-1.226.704 6.688 6.688 0 0 0-.233 1.758c.001.196.01.392.029.587a1 1 0 0 0 1.991-.204 3.996 3.996 0 0 1-.013-.638c.016-.324.068-.655.156-.981z"/></g><g><path d="M44.694 26.81a5.88 5.88 0 0 0-2.386.18 1 1 0 1 0 .543 1.924 3.903 3.903 0 0 1 1.575-.121 1 1 0 1 0 .268-1.983z"/></g><g><path d="M46.692 31.767a1 1 0 0 0 1.91.59c.099-.318.16-.64.183-.963a3.991 3.991 0 0 0-.247-1.642 1.001 1.001 0 0 0-1.875.695c.086.232.13.467.13.696l-.003.117a2.255 2.255 0 0 1-.098.507z"/></g><g><path d="M17.483 44.165c-.586.275-1.183.53-1.774.76a1 1 0 1 0 .721 1.865 29.865 29.865 0 0 0 1.903-.813 1 1 0 0 0 .48-1.33.997.997 0 0 0-1.33-.482z"/></g><g><path d="M10.202 40.002a1 1 0 0 0 .478-.122c.288-.157.595-.255.91-.289.136-.016.274-.016.407.002a.99.99 0 0 0 1.122-.86 1 1 0 0 0-.86-1.122 3.693 3.693 0 0 0-.891-.008 4.445 4.445 0 0 0-1.646.521.999.999 0 0 0 .48 1.878z"/></g><g><path d="M9.989 47.839c.216.056.436.098.654.124.256.03.512.047.769.047.313 0 .627-.022.94-.062a.999.999 0 1 0-.25-1.984 4.9 4.9 0 0 1-1.216.015 3.335 3.335 0 0 1-.394-.075.997.997 0 0 0-1.22.716 1.001 1.001 0 0 0 .717 1.219z"/></g></g></g></svg>