<svg xmlns="http://www.w3.org/2000/svg" width="35" height="39" viewBox="0 0 35 39"><g><g><g><path fill="#bbd40c" d="M24.837 16.742c0-.84-.68-1.522-1.521-1.522H7.642a1.522 1.522 0 1 0 0 3.043h15.674c.84 0 1.521-.68 1.521-1.521z"/></g><g><path fill="#bbd40c" d="M7.642 21.3a1.522 1.522 0 1 0 0 3.043h9.52a1.522 1.522 0 1 0 0-3.043z"/></g><g><path fill="#bbd40c" d="M11.216 35.913H6.127a3.047 3.047 0 0 1-3.044-3.043V6.087a3.047 3.047 0 0 1 3.044-3.044h18.709a3.047 3.047 0 0 1 3.043 3.044v9.359a1.522 1.522 0 1 0 3.044 0V6.087A6.094 6.094 0 0 0 24.836 0H6.127A6.094 6.094 0 0 0 .04 6.087V32.87a6.094 6.094 0 0 0 6.087 6.087h5.09a1.522 1.522 0 1 0 0-3.044z"/></g><g><path fill="#bbd40c" d="M31.475 26.338l-.295.295-2.152-2.152.294-.294a1.523 1.523 0 0 1 2.152 0c.593.594.593 1.56.001 2.151zm-8.05 8.038l-3.093.856.905-2.977 5.644-5.625 2.155 2.153zm10.201-12.34a4.57 4.57 0 0 0-6.455-.002l-8.355 8.336a1.522 1.522 0 0 0-.38.635l-1.82 5.99a1.522 1.522 0 0 0 1.862 1.909l6.142-1.702c.253-.07.483-.204.669-.39l8.337-8.32a4.57 4.57 0 0 0 0-6.457z"/></g><g><path fill="#bbd40c" d="M23.316 9.13H7.642a1.522 1.522 0 1 0 0 3.043h15.674a1.522 1.522 0 1 0 0-3.043z"/></g></g></g></svg>