<svg xmlns="http://www.w3.org/2000/svg" width="46" height="60" viewBox="0 0 46 60"><g><g><g><path d="M29.18 55c-.827 0-1.5-.673-1.5-1.5s.673-1.5 1.5-1.5 1.5.673 1.5 1.5-.673 1.5-1.5 1.5zm0-5c-1.93 0-3.5 1.57-3.5 3.5s1.57 3.5 3.5 3.5 3.5-1.57 3.5-3.5-1.571-3.5-3.5-3.5z"/></g><g><path d="M33.68 31c1.103 0 2 .897 2 2s-.897 2-2 2-2-.897-2-2 .897-2 2-2zm0 6c2.206 0 4-1.794 4-4s-1.794-4-4-4-4 1.794-4 4 1.793 4 4 4z"/></g><g><path d="M9.68 12a.997.997 0 0 0 .707-.293l2-2a.999.999 0 1 0-1.414-1.414l-2 2A.999.999 0 0 0 9.68 12z"/></g><g><path d="M42.697 34.088a6.47 6.47 0 0 1 .975 3.412 6.448 6.448 0 0 1-2.602 5.19l-.398.3V47H22.673v-2.718l-.353-.3a3.21 3.21 0 0 0-.18-.14L13.264 35h5.085l9.388 9.39a3.285 3.285 0 0 0 2.328.963c.844 0 1.688-.321 2.33-.963zM42.672 58h-5.995v-3.426A7.551 7.551 0 0 0 34.216 49h8.456zm-21.995 0v-9h8.422a5.58 5.58 0 0 1 5.57 5.574V58zm-9.044-29.938l.415-.047c.041-.006.082-.015.124-.015h9.996a2.502 2.502 0 0 1 2.499 2.5c0 1.379-1.12 2.5-2.5 2.5h-9.995a2.502 2.502 0 0 1-2.499-2.5 2.504 2.504 0 0 1 1.96-2.438zm8.969-21.92l22.69 22.69a1.295 1.295 0 0 1 0 1.83l-.437.439L30.98 42.976a1.296 1.296 0 0 1-1.83 0L21.176 35h.996c2.48 0 4.5-2.02 4.5-4.5 0-2.481-2.02-4.5-4.5-4.5h-9.997L6.46 20.284zM2.697 16.522a1.298 1.298 0 0 1 0-1.831L15.004 2.379c.125-.125.27-.22.426-.282.07-.03.149-.028.223-.044.178-.038.354-.038.532 0 .074.016.152.015.222.044.155.063.3.157.426.282l2.348 2.349L5.045 18.87zM26.174 6a2.5 2.5 0 0 1 1.56 4.447L24.23 6.936A2.494 2.494 0 0 1 26.174 6zm7.496 7.5a2.5 2.5 0 0 1-.935 1.947l-3.504-3.511a2.492 2.492 0 0 1 1.943-.937 2.502 2.502 0 0 1 2.496 2.5zm5 5a2.5 2.5 0 0 1-.934 1.947l-3.504-3.511a2.492 2.492 0 0 1 1.943-.937 2.502 2.502 0 0 1 2.496 2.5zm5.002 5a2.5 2.5 0 0 1-.935 1.947l-3.504-3.511a2.492 2.492 0 0 1 1.943-.937 2.502 2.502 0 0 1 2.496 2.5zm2 6.248c0-.88-.343-1.707-.965-2.33l-.557-.556a4.492 4.492 0 0 0 1.521-3.362c0-2.481-2.019-4.5-4.5-4.5a4.4 4.4 0 0 0-.54.04 4.4 4.4 0 0 0 .04-.54c0-2.481-2.019-4.5-4.5-4.5a4.4 4.4 0 0 0-.54.04 4.4 4.4 0 0 0 .04-.54c0-2.481-2.019-4.5-4.5-4.5a4.4 4.4 0 0 0-.54.04 4.4 4.4 0 0 0 .04-.54c0-2.481-2.019-4.5-4.5-4.5a4.493 4.493 0 0 0-3.362 1.52L18.252.965a3.296 3.296 0 0 0-4.658 0L1.282 13.276a3.3 3.3 0 0 0 0 4.659l8.673 8.673c-1.356.776-2.283 2.22-2.283 3.892 0 1.563.803 2.94 2.017 3.748.061.08.132.16.227.242l10.756 10.715V47h-2v13h26V47h-2v-3.03a8.42 8.42 0 0 0 3-6.471c0-1.74-.543-3.43-1.536-4.852l.571-.571a3.272 3.272 0 0 0 .965-2.33z"/></g></g></g></svg>