<svg xmlns="http://www.w3.org/2000/svg" width="34" height="34" viewBox="0 0 34 34"><g><g><g><path fill="#fff" d="M30.603 30.603h-6.279l6.28-8.97zm2.834 0h-1.7V19.836a.567.567 0 0 0-1.031-.324l-7.934 11.333a.567.567 0 0 0 .464.892h7.367v1.7a.567.567 0 0 0 1.134 0v-1.7h1.7a.567.567 0 0 0 0-1.134z"/></g><g><path fill="#fff" d="M23.23 32.87h-6.709l6.238-7.344a.61.61 0 0 0 .04-.053 3.941 3.941 0 0 0-.89-5.35 4.533 4.533 0 0 0-7.179 3.681.567.567 0 0 0 1.133 0 3.4 3.4 0 0 1 5.384-2.762 2.797 2.797 0 0 1 .623 3.777l-7.005 8.251a.567.567 0 0 0 .432.933h7.933a.567.567 0 0 0 0-1.133z"/></g><g><path fill="#fff" d="M15.403 30.055a.568.568 0 0 0-.548-.588c-7.437-.275-13.406-6.2-13.695-13.595h2.26c.315 0 .57-.254.57-.567a.568.568 0 0 0-.57-.566H1.16C1.445 7.357 7.397 1.438 14.82 1.154v1.68c0 .313.256.567.57.567.315 0 .57-.254.57-.567v-1.68c7.322.282 13.23 6.047 13.653 13.321l-2.223-2.21a.572.572 0 0 0-.806.014.565.565 0 0 0 0 .787l3.182 3.165a.56.56 0 0 0 .225.162.656.656 0 0 0 .068.017c.039.014.08.023.12.029h.033a.552.552 0 0 0 .128-.025.54.54 0 0 0 .07-.013.562.562 0 0 0 .205-.129l3.225-3.206a.565.565 0 0 0-.014-.801.572.572 0 0 0-.792 0l-2.278 2.264C30.348 6.403 23.61.019 15.43.008c-.014 0-.026-.008-.04-.008-.015 0-.027.007-.041.008C6.882.019.02 6.844.008 15.265c0 .014-.008.026-.008.04 0 .015.007.026.008.04.014 8.214 6.55 14.95 14.804 15.255h.021c.307 0 .558-.24.57-.545z"/></g><g><path fill="#fff" d="M15.216 15.754a.61.61 0 0 1-.81 0 .522.522 0 0 1 0-.767.595.595 0 0 1 .81 0 .522.522 0 0 1 0 .767zM22.5 8.089a.595.595 0 0 0-.809 0l-6.15 5.824a1.884 1.884 0 0 0-1.459 0l-2.911-2.758a.595.595 0 0 0-.81.013.522.522 0 0 0 0 .753l2.906 2.753c-.408.809-.046 1.778.808 2.164.656.297 1.437.17 1.951-.317.516-.485.65-1.228.33-1.847L22.5 8.855a.522.522 0 0 0 0-.766z"/></g></g></g></svg>