<?xml version="1.0" encoding="UTF-8"?>
<svg width="195px" height="99px" viewBox="0 0 195 99" version="1.1" xmlns="http://www.w3.org/2000/svg" xmlns:xlink="http://www.w3.org/1999/xlink">
    <!-- Generator: Sketch 56.2 (81672) - https://sketch.com -->
    <title>Logo-bottom</title>
    <desc>Created with Sketch.</desc>
    <g id="Page-1" stroke="none" stroke-width="1" fill="none" fill-rule="evenodd">
        <g id="1-Index" transform="translate(-333.000000, -2740.000000)">
            <g id="Logo-bottom" transform="translate(333.000000, 2738.000000)">
                <g id="Group-2" stroke="#FFFFFF" stroke-width="2">
                    <g id="Group" transform="translate(0.000000, -0.000000)">
                        <path d="M40.0876601,36.3804348 C28.902865,36.3804348 18.5428566,42.2645708 12.8141245,51.8708849 L5.99086299,63.312578 C5.80613517,63.6223417 5.7086082,63.9762933 5.7086082,64.3369565 C5.7086082,65.441526 6.6040387,66.3369565 7.7086082,66.3369565 L67.9144006,66.3369565 C78.9036925,66.3369565 89.0439474,60.4272463 94.4608402,50.865771 L100.975681,39.3662841 C101.146009,39.0656335 101.235537,38.7259815 101.235537,38.3804348 C101.235537,37.2758653 100.340106,36.3804348 99.2355368,36.3804348 L40.0876601,36.3804348 Z" id="Rectangle-Copy-4" transform="translate(53.404866, 51.358696) scale(-1, 1) rotate(-90.000000) translate(-53.404866, -51.358696) "></path>
                        <path d="M20.108802,16.9782609 C9.30400426,16.9782609 -0.627301312,22.9139469 -5.74452216,32.4301281 L-11.9594083,43.9875699 C-12.115982,44.2787405 -12.197935,44.6041837 -12.197935,44.9347826 C-12.197935,46.0393521 -11.3025045,46.9347826 -10.197935,46.9347826 L13.667277,46.9347826 C24.3037343,46.9347826 34.0429056,40.9736587 38.8817285,31.5015937 L44.8144959,19.888117 C44.9584043,19.6064141 45.0334395,19.2945932 45.0334395,18.9782609 C45.0334395,17.8736914 44.138009,16.9782609 43.0334395,16.9782609 L20.108802,16.9782609 Z" id="Rectangle-Copy-5" transform="translate(16.358696, 31.956522) rotate(-90.000000) translate(-16.358696, -31.956522) "></path>
                    </g>
                </g>
                <path d="M109.09,47 L99.55,64.67 C98.8699966,65.9300063 98.0750046,66.864997 97.165,67.475 C96.2549955,68.085003 95.2600054,68.39 94.18,68.39 C93.379996,68.39 92.5200046,68.2000019 91.6,67.82 L92.23,66.02 C92.9500036,66.3000014 93.609997,66.44 94.21,66.44 C95.5900069,66.44 96.7199956,65.6900075 97.6,64.19 L98.2,63.17 L89.68,47 L92.05,47 L99.37,61.22 L106.87,47 L109.09,47 Z M122.17,68.18 C120.08999,68.18 118.215008,67.7200046 116.545,66.8 C114.874992,65.8799954 113.565005,64.6050082 112.615,62.975 C111.664995,61.3449918 111.19,59.5200101 111.19,57.5 C111.19,55.4799899 111.664995,53.6550082 112.615,52.025 C113.565005,50.3949918 114.879992,49.1200046 116.56,48.2 C118.240008,47.2799954 120.11999,46.82 122.2,46.82 C123.760008,46.82 125.199993,47.0799974 126.52,47.6 C127.840007,48.1200026 128.959995,48.879995 129.88,49.88 L128.47,51.29 C126.829992,49.6299917 124.760013,48.8 122.26,48.8 C120.599992,48.8 119.090007,49.1799962 117.73,49.94 C116.369993,50.7000038 115.305004,51.7399934 114.535,53.06 C113.764996,54.3800066 113.38,55.8599918 113.38,57.5 C113.38,59.1400082 113.764996,60.6199934 114.535,61.94 C115.305004,63.2600066 116.369993,64.2999962 117.73,65.06 C119.090007,65.82 120.599992,66.2 122.26,66.2 C124.780013,66.2 126.849992,65.3600084 128.47,63.68 L129.88,65.09 C128.959995,66.090005 127.835007,66.8549973 126.505,67.385 C125.174993,67.9150026 123.730008,68.18 122.17,68.18 Z M152.14,47 L152.14,68 L149.95,68 L149.95,48.92 L136.66,48.92 L136.66,68 L134.47,68 L134.47,47 L152.14,47 Z M174.07,66.08 L174.07,68 L159.22,68 L159.22,47 L173.62,47 L173.62,48.92 L161.44,48.92 L161.44,56.39 L172.3,56.39 L172.3,58.28 L161.44,58.28 L161.44,66.08 L174.07,66.08 Z M179.2,47 L185.17,55.31 L191.11,47 L193.72,47 L186.55,57.08 L194.29,68 L191.68,68 L185.17,58.97 L178.66,68 L176.11,68 L183.82,57.17 L176.65,47 L179.2,47 Z" id="УСПЕХ" fill="#FFFFFF" fill-rule="nonzero"></path>
                <path d="M101.1475,38.04 L101.1475,41.46 L100.1125,41.46 L100.1125,39 L90.9475,39 L90.9475,28.5 L92.0425,28.5 L92.0425,38.04 L98.3875,38.04 L98.3875,28.5 L99.4825,28.5 L99.4825,38.04 L101.1475,38.04 Z M106.0675,28.41 C107.047505,28.41 107.934996,28.6399977 108.73,29.1 C109.525004,29.5600023 110.149998,30.1974959 110.605,31.0125 C111.060002,31.8275041 111.2875,32.7399949 111.2875,33.75 C111.2875,34.7600051 111.060002,35.6724959 110.605,36.4875 C110.149998,37.3025041 109.525004,37.9399977 108.73,38.4 C107.934996,38.8600023 107.047505,39.09 106.0675,39.09 C105.247496,39.09 104.497503,38.9600013 103.8175,38.7 C103.137497,38.4399987 102.567502,38.0550025 102.1075,37.545 L102.7975,36.84 C103.627504,37.6800042 104.702493,38.1 106.0225,38.1 C106.762504,38.1 107.437497,37.9275017 108.0475,37.5825 C108.657503,37.2374983 109.149998,36.762503 109.525,36.1575 C109.900002,35.552497 110.1125,34.8700038 110.1625,34.11 L104.7475,34.11 L104.7475,33.195 L110.1475,33.195 C110.0675,32.4649963 109.840002,31.8125029 109.465,31.2375 C109.089998,30.6624971 108.602503,30.2125016 108.0025,29.8875 C107.402497,29.5624984 106.742504,29.4 106.0225,29.4 C104.702493,29.4 103.627504,29.8199958 102.7975,30.66 L102.1075,29.955 C102.567502,29.4449974 103.137497,29.0600013 103.8175,28.8 C104.497503,28.5399987 105.247496,28.41 106.0675,28.41 Z M117.8725,28.5 C119.212507,28.5 120.262496,28.8199968 121.0225,29.46 C121.782504,30.1000032 122.1625,30.9799944 122.1625,32.1 C122.1625,33.2200056 121.782504,34.0974968 121.0225,34.7325 C120.262496,35.3675032 119.212507,35.685 117.8725,35.685 L115.0525,35.685 L115.0525,39 L113.9425,39 L113.9425,28.5 L117.8725,28.5 Z M117.8425,34.71 C118.882505,34.71 119.677497,34.4825023 120.2275,34.0275 C120.777503,33.5724977 121.0525,32.9300042 121.0525,32.1 C121.0525,31.2499958 120.777503,30.5975023 120.2275,30.1425 C119.677497,29.6874977 118.882505,29.46 117.8425,29.46 L115.0525,29.46 L115.0525,34.71 L117.8425,34.71 Z" id="ЦЭР" fill="#FFFFFF" fill-rule="nonzero"></path>
            </g>
        </g>
    </g>
</svg>