<svg xmlns="http://www.w3.org/2000/svg" width="195" height="99" viewBox="0 0 195 99"><defs><linearGradient id="klsaa" x1="15.62" x2="81.15" y1="30.66" y2="64.98" gradientUnits="userSpaceOnUse"><stop offset="0" stop-color="#bbd40c"/><stop offset="1" stop-color="#ebf658"/></linearGradient><linearGradient id="klsab" x1="-10.5" x2="47.8" y1="42.35" y2="22.46" gradientUnits="userSpaceOnUse"><stop offset="0" stop-color="#fff700"/><stop offset="1" stop-color="#ffab71"/></linearGradient></defs><g><g transform="rotate(90 53.5 49.5)"><path fill="url(#klsaa)" d="M90.7 42.16a18 18 0 0 0-15.46-8.78H7.712a3 3 0 0 0-2.61 4.479l10.396 18.35a18 18 0 0 0 15.661 9.128h68.08a3 3 0 0 0 2.577-4.537z"/></g><g transform="rotate(-90 16 30)"><path fill="url(#klsab)" d="M-3.13 23.455a18 18 0 0 1 15.852-9.475h30.309a3 3 0 0 1 2.671 4.365L36.341 36.67a17 17 0 0 1-15.14 9.267H-10.2a3 3 0 0 1-2.642-4.421z"/></g><g><g><text dominant-baseline="text-before-edge" style="text-transform:uppercase" font-family="'Montserrat','Montserrat-Regular'" font-size="30" transform="translate(89 37)"><tspan style="text-transform:uppercase">Успех</tspan></text></g></g><g><g><text dominant-baseline="text-before-edge" font-family="'Montserrat','Montserrat-Regular'" font-size="15" transform="translate(89 22)"><tspan>ЦЭР</tspan></text></g></g></g></svg>