<svg xmlns="http://www.w3.org/2000/svg" width="45" height="45"><path fill="#bbd40c" d="M38.923 5.988V2.555l3.443 3.433zm5.768.219L38.704.219a.748.748 0 00-.53-.219H17.219a.748.748 0 00-.748.748v8.233h1.497V1.497h19.46v5.239c0 .413.334.748.748.748h5.239v28.441H32.187v1.497h11.975a.748.748 0 00.749-.748V6.736a.748.748 0 00-.22-.53z"/><path fill="#bbd40c" d="M23.202 43.411H1.497V11.977h21.705zm.748-32.931H.748a.748.748 0 00-.748.748V44.16c0 .413.335.748.748.748H23.95a.748.748 0 00.749-.748V11.228a.748.748 0 00-.749-.748z"/><path fill="#bbd40c" d="M20.194 20.208H4.487v-4.491h15.707zm.759-5.988H3.738a.748.748 0 00-.748.748v5.988c0 .413.335.748.748.748h17.215a.748.748 0 00.748-.748v-5.988a.748.748 0 00-.748-.748zM6.722 40.402H4.487v-2.235h2.235zm.759-3.732H3.738a.748.748 0 00-.748.748v3.743c0 .413.335.748.748.748h3.743a.748.748 0 00.748-.748v-3.743a.748.748 0 00-.748-.748zm5.981 3.732h-2.235v-2.235h2.235zm.759-3.732h-3.743a.748.748 0 00-.748.748v3.743c0 .413.335.748.748.748h3.743a.748.748 0 00.748-.748v-3.743a.748.748 0 00-.748-.748zm-7.499-2.998H4.487v-2.235h2.235zm.759-3.732H3.738a.748.748 0 00-.748.748v3.743c0 .413.335.748.748.748h3.743a.748.748 0 00.748-.748v-3.743a.748.748 0 00-.748-.748zm5.981 3.732h-2.235v-2.235h2.235zm.759-3.732h-3.743a.748.748 0 00-.748.748v3.743c0 .413.335.748.748.748h3.743a.748.748 0 00.748-.748v-3.743a.748.748 0 00-.748-.748zm-7.499-3.008H4.487v-2.235h2.235zm.759-3.732H3.738a.748.748 0 00-.748.748v3.743c0 .413.335.748.748.748h3.743a.748.748 0 00.748-.748v-3.743a.748.748 0 00-.748-.748zm5.981 3.732h-2.235v-2.235h2.235zm.759-3.732h-3.743a.748.748 0 00-.748.748v3.743c0 .413.335.748.748.748h3.743a.748.748 0 00.748-.748v-3.743a.748.748 0 00-.748-.748zm5.984 3.732h-2.241v-2.235h2.241zm.756-3.732h-3.743a.748.748 0 00-.748.748v3.743c0 .413.335.748.748.748h3.743a.748.748 0 00.748-.748v-3.743a.748.748 0 00-.748-.748zm-.756 17.22h-2.241v-8.984h2.241zm.756-10.48h-3.743a.748.748 0 00-.748.748v10.479c0 .413.335.748.748.748h3.743a.748.748 0 00.748-.748V30.688a.748.748 0 00-.748-.748z"/><path fill="#bbd40c" d="M17.21 17.21h1.497v1.497H17.21zm-2.99 0h1.497v1.497H14.22zm-2.99 0h1.497v1.497H11.23zM21.7 4.49h14.22v1.497H21.7zm0 2.99h14.22v1.497H21.7zm16.475 3v8.233h-1.497v-6.736h-1.497v6.736h-1.497v-2.994h-1.496v2.994H30.69v-5.24h-1.497v5.24h-1.497v-2.994H26.2v4.491h13.472v-9.73zm-8.991 14.945h-1.487v-1.477h1.487zm0 16.26l-.744 1.122-.743-1.123V26.943h1.487zm3.752-16.241h-2.245v-2.246a.748.748 0 00-.749-.748h-2.994a.748.748 0 00-.748.748V41.91a.75.75 0 00.126.416l1.497 2.245a.748.748 0 001.245 0l1.497-2.245a.753.753 0 00.126-.416V26.941h1.497v7.484h1.496v-8.233a.748.748 0 00-.748-.748zm-.756-2.994h7.484v1.497H32.18zm3 3h4.49v1.497h-4.49zm0 2.99h4.49v1.497h-4.49zm0 2.99h4.49v1.497h-4.49z"/></svg>