<svg xmlns="http://www.w3.org/2000/svg" width="45" height="45"><path fill="#bbd40c" d="M23.67 14.775a.745.745 0 00.04-.525 2.22 2.22 0 01.347-1.97c.124-.112.24-.233.347-.362a2.246 2.246 0 013.495 2.659 2.224 2.224 0 01-1.134 1.098.75.75 0 00-.375.369l-.754 1.617-2.719-1.269zM27.401 7.5H34.5a2.25 2.25 0 110 4.5h-2.871a3.941 3.941 0 00-2.166.658 3.767 3.767 0 00-1.363-2.024l.66-1.444-1.36-.635-.658 1.441a3.866 3.866 0 00-.938-.1zm.328 12.787l-.635 1.356-2.037-.951-4.083-1.9-2.04-.948.635-1.357zm-6.86 9.226l-1.984-.93-1.985-.925 4.062-7.209 2.82 1.316zm.862 5.368v.003l-9.506-4.441a2.996 2.996 0 013.983-1.452l4.074 1.903c1.5.7 2.149 2.486 1.45 3.987zM2.827 29.208l-.243-1.48 8.891-1.459.243 1.481zm8.038.6l-.164.352-.171-.7.575-.094a4.44 4.44 0 00-.24.442zm-4.89.4l2.807-.46.263-.044 1.963 8.038-4.322.71zm5.335 9.004a3.008 3.008 0 013.45 2.475L4.395 43.39a3.004 3.004 0 012.475-3.45l2.22-.365zM2.255 21.7l3.803-.624 2.964-.486.837-.137-1.652 3.65a.749.749 0 00-.057.43l.121.74-1.907.314-1.057.174-.121-.742a.75.75 0 00-.192-.39zm3.306-3.584c.94-.155 1.874.3 2.332 1.137l-2.862.473-1.315.216a2.247 2.247 0 011.845-1.826zM19.725 8.25l3.997-5.78a2.25 2.25 0 011.853-.97H45V0H25.575a3.75 3.75 0 00-3.083 1.616l-4.005 5.778a3.739 3.739 0 001.22 5.373 3.702 3.702 0 002.434.428 3.79 3.79 0 00.058 1.188l-.643 1.378-2.039-.951a.75.75 0 00-.996.362L17.25 17.89a.75.75 0 00.362.998l1.985.925-4.186 7.425a4.512 4.512 0 00-2.214.332l-.375-2.287a.744.744 0 00-.85-.62l-.011.002-2.22.365-.086-.517 2.138-4.72a.75.75 0 00-.805-1.05l-1.555.255a3.763 3.763 0 00-3.358-2.41l-.255-1.555-1.48.243.255 1.556a3.761 3.761 0 00-2.412 3.358l-1.554.256a.75.75 0 00-.427 1.251l3.534 3.789.085.516-2.22.364a.75.75 0 00-.62.859l.488 2.96a.75.75 0 00.86.618l2.162-.353.732 8.494A4.5 4.5 0 002.9 43.5H0V45h45v-1.5H12.975l2.766-.45a.75.75 0 00.619-.861l-.122-.741a4.507 4.507 0 00-3.685-3.705l-1.513-6.195 10.747 5.013a.75.75 0 00.997-.362l.317-.68a4.444 4.444 0 00-.96-5.124l3.006-7.99 1.984.92a.754.754 0 00.996-.363l1.269-2.719a.75.75 0 00-.363-.996l-2.039-.947.643-1.378c.093-.05.177-.114.265-.17A3.697 3.697 0 0031.5 19.5H45V18H31.5a2.254 2.254 0 01-1.666-.737 2.232 2.232 0 01-.573-1.737A2.338 2.338 0 0131.63 13.5h2.87a3.75 3.75 0 000-7.5H27a.75.75 0 00-.624.334l-2.954 4.43c-.016.025-.039.046-.057.07a3.735 3.735 0 00-.343.37 2.236 2.236 0 01-2.571.261 2.237 2.237 0 01-.726-3.215z"/><path fill="#bbd40c" d="M13.578 16.167l1.5-3 1.341.671-1.5 3zM9.801 13.721l1.342-.67 1.5 3-1.342.67zM25.496 34.5v.3c0 1.438-.719 2.78-1.916 3.576l.833 1.248a5.79 5.79 0 002.583-4.824v-.3z"/></svg>