<svg xmlns="http://www.w3.org/2000/svg" width="45" height="45"><path fill="#bbd40c" d="M32.147 34.28l-9.708 8.884-9.976-8.55-.973 1.137 10.478 8.981a.748.748 0 00.992-.016l10.197-9.332z"/><path fill="#bbd40c" d="M30.18 32.12l-7.797 7.052-7.68-6.586-.973 1.14 8.179 7.01c.286.246.71.24.99-.013l8.285-7.493z"/><path fill="#bbd40c" d="M27.66 21.913a.748.748 0 000 1.068l15.75 15.494v2.37L25.008 22.447l14.44-14.435a.748.748 0 000-1.058L38.32 5.827l5.003-.501-.501 5.001L41.693 9.2a.749.749 0 00-1.053-.005zm-7.762.54l-14.44 14.44a.748.748 0 000 1.058l1.128 1.129-5.003.5.501-5.002 1.13 1.129c.29.29.759.292 1.052.005l12.981-12.724a.749.749 0 000-1.068L1.497 6.422v-2.37zm22.982-9.95a.748.748 0 001.278-.453l.748-7.484a.748.748 0 00-.823-.82l-7.484.748a.748.748 0 00-.455 1.273l1.717 1.717-1.936 1.936V7.367a.748.748 0 00-.69-.749 36.606 36.606 0 01-12.292-3.18l-.143-.065a.744.744 0 00-.621 0A36.85 36.85 0 019.67 6.623a.748.748 0 00-.69.748v2.05L7.484 7.925V5.23a35.495 35.495 0 0014.984-3.653l1.094.498a35.237 35.237 0 0010.785 2.957l.162-1.489A33.732 33.732 0 0124.181.713L22.759.067a.749.749 0 00-.645.012l-.188.094A33.966 33.966 0 016.81 3.743h-.075a.748.748 0 00-.748.748v1.935l-4.71-4.71A.748.748 0 000 2.246v4.49c0 .2.081.393.225.534l15.43 15.183-5.177 5.073v-8.815H8.981v10.283L7.55 30.397l-.065-.055V15.717H5.988v14.97a.75.75 0 00.26.567l.225.195-2.726 2.675-1.721-1.722a.748.748 0 00-1.272.455L.005 40.34a.748.748 0 00.743.823c.025 0 .05 0 .075-.003l7.485-.749a.748.748 0 00.454-1.272l-1.716-1.718 7.923-7.923v1.187h1.497V29.19h-1.187l6.206-6.207a.748.748 0 000-1.058L10.478 10.917V8.055a38.309 38.309 0 0012.013-3.179 38.106 38.106 0 0011.937 3.177v2.864L23.421 21.924a.748.748 0 000 1.058l6.207 6.207H28.44v1.497h1.497V29.5l13.69 13.691a.748.748 0 001.278-.529v-4.49a.744.744 0 00-.224-.534l-6.661-6.555.652-.59a.748.748 0 00.246-.554V16.466h-1.497v13.14l-.47.425-1.11-1.093a.74.74 0 00.083-.329v-9.898h-1.497v8.837l-5.177-5.095 11.908-11.67z"/><path fill="#bbd40c" d="M21.7 6.74h1.497v1.497H21.7zm-8.98 2.24h1.497v1.497H12.72zm4.49-.74h1.497v1.497H17.21zm8.99 0h1.497v1.497H26.2zm4.49.74h1.497v1.497H30.69zM11.98 21.71h1.497v1.497H11.98zm19.45 0h1.497v1.497H31.43zM21.7 35.18h1.497v1.497H21.7zm-3.74-2.99h1.497v1.497H17.96zm7.49 0h1.497v1.497H25.45z"/></svg>