<svg xmlns="http://www.w3.org/2000/svg" width="45" height="45"><path fill="#bbd40c" d="M41.194 21.875a2.243 2.243 0 01-2.24-2.246 2.243 2.243 0 012.24-2.245 2.243 2.243 0 012.24 2.245 2.243 2.243 0 01-2.24 2.246zM3.849 30.828a2.24 2.24 0 110-4.482 2.24 2.24 0 010 4.482zm0-14.938a2.24 2.24 0 110-4.481 2.24 2.24 0 010 4.48zm9.71-9.71a2.24 2.24 0 110-4.48 2.24 2.24 0 010 4.48zm21.66-4.48a2.24 2.24 0 110 4.48 2.24 2.24 0 010-4.48zm5.973 14.19h.002a3.726 3.726 0 00-3.327 2.073l-9.445-3.373a5.934 5.934 0 00-1.102-4.486l5.271-3.515a3.767 3.767 0 10-.827-1.244l-5.49 3.66a5.94 5.94 0 00-7.35-.116l-2.28-2.849a3.792 3.792 0 10-1.081 1.04l2.285 2.856a5.947 5.947 0 00-1.25 2.966H7.51a3.734 3.734 0 100 1.494h9.086c.083.685.285 1.35.598 1.964L5.947 25.5a3.79 3.79 0 101.04 1.079l11.322-9.2a.747.747 0 00.533-1.17 4.481 4.481 0 117.356 0l1.225.854a5.87 5.87 0 00.567-1.042l9.49 3.39c-.005.074-.022.14-.022.213a3.734 3.734 0 103.734-3.735z"/><path fill="#bbd40c" d="M35.963 24.11a2.98 2.98 0 00-2.24 1.014 2.984 2.984 0 00-4.482 0 2.983 2.983 0 00-3.735-.613v-9.363a2.988 2.988 0 00-5.975 0v12.024a5.213 5.213 0 00-3.734-1.568.747.747 0 00-.747.747v13.444c0 .198.079.388.219.528l4.7 4.7h2.112l-5.537-5.537V27.172a3.74 3.74 0 012.987 3.66v5.228a.747.747 0 001.494 0V15.148a1.494 1.494 0 112.988 0v13.444a.747.747 0 001.493 0v-1.494a1.494 1.494 0 112.988 0v1.494a.747.747 0 001.494 0v-1.494a1.494 1.494 0 112.987 0v1.494a.747.747 0 001.494 0v-1.494a1.494 1.494 0 112.988 0v17.925h1.493V27.098a2.988 2.988 0 00-2.987-2.988z"/></svg>