<svg xmlns="http://www.w3.org/2000/svg" width="45" height="45"><path fill="#bbd40c" d="M27.69 14.97a5.245 5.245 0 01-5.24 5.24v1.496a6.743 6.743 0 006.736-6.736zM15.72 14.966h1.497a5.245 5.245 0 015.239-5.24V8.23a6.743 6.743 0 00-6.736 6.736z"/><path fill="#bbd40c" d="M23.81 14.813l-2.46-.41a.467.467 0 01.075-.928h2.06c.258 0 .467.21.467.467v.282h1.497v-.282a1.966 1.966 0 00-1.962-1.964h-.282v-.748h-1.497v.748h-.281a1.964 1.964 0 00-.323 3.902l2.459.41a.467.467 0 01-.075.928h-2.061a.468.468 0 01-.467-.468v-.28h-1.497v.28a1.966 1.966 0 001.964 1.964h.281v.749h1.497v-.749h.282a1.964 1.964 0 00.322-3.901z"/><path fill="#bbd40c" d="M28.053 20.94a8.207 8.207 0 11-1.11-12.86v3.895h1.497V9.34a8.207 8.207 0 01-.387 11.6zm3.38-9.713V5.239h-1.496v3.522a9.804 9.804 0 00-1.497-1.446V2.994h-1.497v3.352a9.655 9.655 0 00-4.49-1.107c-.254 0-.501.019-.75.038V0h-1.496v5.51a9.713 9.713 0 00-1.497.478V4.49h-1.497v2.245h.075a9.803 9.803 0 00-2.32 2.024V2.994H13.47v8.233c-2.067 4.96.279 10.656 5.239 12.723s10.657-.279 12.724-5.239a9.73 9.73 0 000-7.484zM26.94 0h1.497v1.497H26.94z"/><path fill="#bbd40c" d="M17.21 1.5h1.497v1.497H17.21zM36.671 6.31a4.393 4.393 0 00-1.069-1.07 4.393 4.393 0 001.069-1.069c.292.416.654.777 1.069 1.07a4.392 4.392 0 00-1.069 1.068zm3.73-1.195a.748.748 0 00-.613-.613 2.895 2.895 0 01-2.379-2.378.748.748 0 00-1.476 0 2.895 2.895 0 01-2.38 2.378.748.748 0 000 1.476 2.895 2.895 0 012.38 2.379.748.748 0 001.476 0 2.895 2.895 0 012.38-2.379.748.748 0 00.612-.863zM42.669 35.265l-11.65 7.772a2.232 2.232 0 01-1.245.374H10.478v-11.62a7.256 7.256 0 019.24.214.75.75 0 00.487.18h8.604a1.87 1.87 0 010 3.742h-7.856a.748.748 0 000 1.496h10.475c.124 0 .246-.03.355-.089l9.197-4.954a1.674 1.674 0 011.689 2.885zm1.688-3.18a3.186 3.186 0 00-2.59-1.398c-.52 0-1.03.13-1.488.375l-8.489 4.571a3.368 3.368 0 00-2.975-4.946h-8.337a8.743 8.743 0 00-11.002 0H0v1.497h8.981v11.227H0v1.497h29.78a3.723 3.723 0 002.075-.629l11.653-7.769a3.186 3.186 0 00.85-4.425z"/><path fill="#bbd40c" d="M5.23 40.404a.743.743 0 110-1.487.743.743 0 010 1.487zm.005-2.984a2.245 2.245 0 100 4.49 2.245 2.245 0 000-4.49z"/></svg>