<svg xmlns="http://www.w3.org/2000/svg" width="45" height="45"><path fill="#bbd40c" d="M10.474 26.95a1.497 1.497 0 110-2.993 1.497 1.497 0 010 2.994zm0-4.49a2.994 2.994 0 100 5.988 2.994 2.994 0 000-5.988z"/><path fill="#bbd40c" d="M31.435 35.185v8.233h-8.1c.226-.298.405-.63.531-.981l2.284-6.246-1.406-.515-2.285 6.253a2.252 2.252 0 01-2.116 1.489H9.73a3.747 3.747 0 01-3.742-3.742V37.43H8.98v-1.496H5.988v-2.246a.748.748 0 00-.749-.748H1.812c1.108-3.097 4.38-12.25 4.673-13.265.84-2.896 2.679-5.4 5.19-7.068l-.829-1.247a14.248 14.248 0 00-5.8 7.9c-.266.922-3.388 9.676-5.002 14.175a.748.748 0 00.705 1.002H4.49v5.239a5.246 5.246 0 005.239 5.239h22.453a.748.748 0 00.748-.749v-8.98zm-1.499-15.731a2.989 2.989 0 110-5.977 2.989 2.989 0 010 5.977zm.005-7.474a4.49 4.49 0 100 8.981 4.49 4.49 0 000-8.981z"/><path fill="#bbd40c" d="M43.094 23.9c-.823 1.398-3.343 1.91-6.786 1.306a29.73 29.73 0 00.86-4.502 30.447 30.447 0 003.706-3.133 10.905 10.905 0 012.385 4.023 2.95 2.95 0 01-.166 2.307zm-5.748-9.65a27.95 27.95 0 012.498 2.23 27.63 27.63 0 01-2.498 2.232c.045-.735.075-1.48.075-2.231 0-.752-.03-1.503-.075-2.23zm.198-6.67c.023.08.059.154.089.231.02.056.039.113.064.166.067.149.147.292.238.428.007.01.012.024.02.035.1.144.213.278.337.402.04.04.086.075.127.114.089.08.181.155.278.225.054.038.11.075.166.107a2.955 2.955 0 00.832.35c.057.015.111.033.17.044.181.036.365.056.55.058a2.915 2.915 0 00.748-.106 3.03 3.03 0 00.517-.185c.014-.006.029-.01.043-.017.174-.089.34-.193.493-.313.041-.032.08-.065.12-.098a3.03 3.03 0 00.366-.368c.014-.016.032-.028.044-.045.134.13.25.275.345.435.366.715.426 1.55.163 2.31a10.922 10.922 0 01-2.384 4.027 30.365 30.365 0 00-3.7-3.134 29.468 29.468 0 00-.863-4.491 17.09 17.09 0 011.237-.175zM35.75 19.878a35.65 35.65 0 01-2.775 1.748 36.9 36.9 0 01-3.043 1.545 37.757 37.757 0 01-3.044-1.545 34.517 34.517 0 01-2.78-1.757 36.223 36.223 0 010-6.792 36.49 36.49 0 012.78-1.751 35.699 35.699 0 013.056-1.54c.987.446 2 .955 3.031 1.54a35.3 35.3 0 012.78 1.751 35.54 35.54 0 01-.006 6.801zm-.912 5.01a27.393 27.393 0 01-3.03-.959 39.865 39.865 0 001.915-1.01 37.183 37.183 0 001.783-1.08 26.52 26.52 0 01-.668 3.049zm-1.903 7.305a1.502 1.502 0 110-3.002 1.518 1.518 0 011.502 1.501 1.5 1.5 0 01-1.502 1.501zm-2.993-1.497c0 .14.01.278.03.416.006.043.017.085.025.129.012.067.021.135.038.201h-.093c-1.623 0-3.31-1.893-4.479-5.135 1.53-.39 3.028-.9 4.479-1.523a30.4 30.4 0 004.453 1.52c-.192.53-.394 1.048-.62 1.517h-.01a2.726 2.726 0 00-.28-.062c-.043-.008-.085-.022-.128-.028a2.892 2.892 0 00-.418-.033 2.997 2.997 0 00-2.997 2.998zm-5.584-8.866a37.37 37.37 0 001.796 1.093c.64.364 1.28.698 1.916 1.013-.998.382-2.017.705-3.053.968-.28-1.011-.5-2.038-.66-3.074zm-1.662-9.584a30.294 30.294 0 00-3.69 3.129 19.19 19.19 0 01-.438-.518c.015-.015.026-.034.041-.05.104-.107.2-.222.286-.344a2.99 2.99 0 00.321-.563c.007-.014.01-.03.016-.045a2.96 2.96 0 00.17-.589c.033-.175.05-.352.052-.53a3.028 3.028 0 00-.053-.543c-.006-.029-.01-.058-.017-.087a2.896 2.896 0 00-.155-.508l-.015-.034a2.941 2.941 0 00-2.688-1.824c.046-.246.132-.482.257-.698.822-1.4 3.34-1.913 6.779-1.306a29.484 29.484 0 00-.866 4.51zm-.169 6.453a27.416 27.416 0 01-2.505-2.223 27.831 27.831 0 012.505-2.226 35.967 35.967 0 00-.075 2.226c0 .758.03 1.495.075 2.223zm-5.746 5.21a2.952 2.952 0 01-.164-2.31c.495-1.5 1.31-2.876 2.387-4.03a29.756 29.756 0 003.697 3.135c.172 1.524.462 3.033.868 4.512-3.444.606-5.964.094-6.788-1.307zm1.125-10.781a1.496 1.496 0 01-.74.913 1.488 1.488 0 11-1.183-2.719 1.49 1.49 0 01.482-.089 1.497 1.497 0 011.441 1.895zm7.11-5.08a27.52 27.52 0 013.06.97 38.03 38.03 0 00-1.923 1.011 38.09 38.09 0 00-1.796 1.09c.16-1.035.38-2.06.66-3.07zm4.92-6.542c1.623 0 3.31 1.898 4.478 5.146a30.72 30.72 0 00-4.47 1.524 30.208 30.208 0 00-4.482-1.528c1.168-3.246 2.854-5.142 4.475-5.142zm5.579 9.604l-.002-.002a36.07 36.07 0 00-1.797-1.088 39.223 39.223 0 00-1.903-1 27.673 27.673 0 013.045-.955 26.41 26.41 0 01.657 3.045zm3.403-4.387a1.5 1.5 0 011.497-1.475 1.5 1.5 0 011.497 1.5 1.49 1.49 0 01-.098.515 1.49 1.49 0 01-2.896-.492v-.048zm5.786 14.49a12.575 12.575 0 00-2.806-4.737 12.574 12.574 0 002.805-4.737 4.375 4.375 0 00-.32-3.455 3.743 3.743 0 00-1.015-1.103c.025-.144.039-.29.04-.435a2.985 2.985 0 00-5.9-.651c-.533.05-1.082.128-1.647.234C34.502 2.466 32.377.01 29.937.01c-2.441 0-4.566 2.454-5.924 6.314-4.066-.749-7.289-.134-8.522 1.96a3.831 3.831 0 00-.505 1.863 2.983 2.983 0 001.479 5.58c.273-.001.545-.042.807-.12.224.29.457.578.707.865a12.588 12.588 0 00-2.808 4.74 4.375 4.375 0 00.32 3.455c.898 1.53 2.858 2.273 5.431 2.273a17.395 17.395 0 003.09-.312c1.36 3.86 3.486 6.313 5.925 6.313a3.52 3.52 0 00.881-.131 2.987 2.987 0 104.225-4.223c.313-.636.588-1.29.824-1.958 1.017.196 2.05.3 3.085.31 2.574 0 4.532-.743 5.432-2.272a4.374 4.374 0 00.32-3.454z"/></svg>